<svg xmlns="http://www.w3.org/2000/svg" viewBox="0 0 24 24" fill="none">
  <path d="M7.5 3.75a3.75 3.75 0 1 0 0 7.5 3.75 3.75 0 0 0 0-7.5Zm0 6a2.25 2.25 0 1 1 0-4.5 2.25 2.25 0 0 1 0 4.5Zm9 1.5a3.75 3.75 0 1 0 0-7.5 3.75 3.75 0 0 0 0 7.5Zm0-6a2.25 2.25 0 1 1 0 4.5 2.25 2.25 0 0 1 0-4.5Zm-9 7.5a3.75 3.75 0 1 0 0 7.5 3.75 3.75 0 0 0 0-7.5Zm0 6a2.25 2.25 0 1 1 0-4.5 2.25 2.25 0 0 1 0 4.5Zm9-6a3.75 3.75 0 1 0 0 7.5 3.75 3.75 0 0 0 0-7.5Zm0 6a2.25 2.25 0 1 1 0-4.5 2.25 2.25 0 0 1 0 4.5Z" fill="#000014"/>
</svg>
